<?xml version="1.0" standalone="no"?>
<!DOCTYPE svg PUBLIC "-//W3C//DTD SVG 20010904//EN"
 "http://www.w3.org/TR/2001/REC-SVG-20010904/DTD/svg10.dtd">
<svg version="1.0" xmlns="http://www.w3.org/2000/svg"
 width="997.498552pt" height="801.000000pt" viewBox="0 0 997.498552 801.000000"
 preserveAspectRatio="xMidYMid meet">
<metadata>
Created by potrace 1.12, written by Peter Selinger 2001-2015
</metadata>
<g transform="translate(-2.000000,801.000000) scale(0.100000,-0.100000)"
fill="#000000" stroke="none">
<path d="M20 8002 c0 -11 3974 -3982 3985 -3982 6 0 908 898 2005 1995 l1995
1995 -540 0 -540 0 -1457 -1457 -1458 -1458 -1082 1083 -1083 1082 495 0 495
0 575 -575 575 -575 272 272 273 273 -677 677 -678 678 -1577 0 c-868 0 -1578
-3 -1578 -8z"/>
<path d="M6485 5590 l-2420 -2420 -3 -1585 -2 -1585 380 0 380 0 0 1417 0
1418 2587 2587 2588 2588 -545 0 -545 0 -2420 -2420z"/>
<path d="M5737 2912 l-377 -377 0 -1268 0 -1267 380 0 380 0 0 1645 c0 905 -1
1645 -3 1645 -1 0 -172 -170 -380 -378z"/>
</g>
</svg>
